{"title":"The.Jungle.Book.2016.1080p.TC.X264.Masteredition.Hive-CM8","uid":14608706,"size":4267710172,"categoryP":"video","categoryS":"movies","magnet":"?xt=urn:btih:4e3df4a9f6f00625118d9edcab95a3f92d743210&amp;dn=The.Jungle.Book.2016.1080p.TC.X264.Masteredition.Hive-CM8&amp;tr=udp%3A%2F%2Ftracker.leechers-paradise.org%3A6969&amp;tr=udp%3A%2F%2Fzer0day.ch%3A1337&amp;tr=udp%3A%2F%2Fopen.demonii.com%3A1337&amp;tr=udp%3A%2F%2Ftracker.coppersurfer.tk%3A6969&amp;tr=udp%3A%2F%2Fexodus.desync.com%3A6969","seeders":111,"leechers":29,"uploader":"xxxlavalxxx","files":4,"time":1463118043,"description":"http://extraimago.com/image/aypf\r\n \nhttp://www.imdb.com/title/tt3040964/\r\n\r\n\r\nThe.Jungle.Book.2016.1080p.TC.X264.Masteredition.Hive-CM8\r\n\r\nThx Hive\r\n\r\nCM8 Doing It Right The First Time \r\n\r\nSources:\r\n\r\nVideo: 1080p Chinese Telecine \r\nAudio: English Line Stereo 2.0 (cpg/exclusive)\r\nthx\r\n\r\n\r\nNotes:\r\nThis is a special Encode which took me another 2 days of work, but the result is excellent, its a masterpiece from this source.\r\nI have encoded it in 1080p only cause this movie needs quality. looks and sounds perfect a real cinemafeeling.\r\nQuality is tested and optimized to look perfect even on a 75&quot; 4K TV.\r\n\r\n\r\nEncode:\r\nLast Masteredition for now guys, was fun,the tag and the idea to maximize the enjoyment, hope you liked them\r\n\r\nThe Chinese telecine needed a lot of work,it was way too overbright but colours were ok on this\r\n\r\nSince daylight scenes were too bright i lowered them to normal levels, but that would have killed the darker scenes,\r\nso i had no other choice than to split the movie into scenes again and treat every one as needed.\r\nit was a pita, but totally worth it. nothing is cut from the movie btw.\r\n\r\n\r\nLine Audio was nice, cpl spots needed resync to get all lipsync.\r\n\r\ngot very nice and will do me till retail\r\nenjoy\r\n\r\nPS: maybe Xmen is next, we will find out soon!\r\n\r\nVideo: 1920x1028 @bitrate 5000-8000\r\nAudio: Line AC3 2.0 Stereo\r\nSample: yes included\r\n\r\n \nhttp://www.imdb.com/title/tt3040964/\r\n\r\n\r\nGeneral\r\nComplete name                  : The.Jungle.Book.2016.1080p.TC.X264.Masteredition.Hive-CM8.mkv\r\nFormat                         : Matroska\r\nFormat version                 : Version 2\r\nFile size                      : 3.86 GiB\r\nDuration                       : 1h 45mn\r\nOverall bit rate mode          : Variable\r\nOverall bit rate               : 5 221 Kbps\r\nEncoded date                   : UTC 2016-05-12 19:50:49\r\nWriting application            : mkvmerge v5.6.0 ('Kenya Kane') built on May 27 2012 16:44:04\r\nWriting library                : libebml v1.2.3 + libmatroska v1.3.0\r\n\r\nVideo\r\nID                             : 1\r\nFormat                         : AVC\r\nFormat/Info                    : Advanced Video Codec\r\nFormat profile                 :   \r\nFormat settings, CABAC         : Yes\r\nFormat settings, ReFrames      : 4 frames\r\nFormat settings, GOP           : M=4, N=33\r\nMuxing mode                    : Header stripping\r\nCodec ID                       : V_MPEG4/ISO/AVC\r\nDuration                       : 1h 45mn\r\nBit rate mode                  : Variable\r\nBit rate                       : 4 861 Kbps\r\nMaximum bit rate               : 8 000 Kbps\r\nWidth                          : 1 920 pixels\r\nHeight                         : 1 028 pixels\r\nDisplay aspect ratio           : 1.85:1\r\nFrame rate mode                : Constant\r\nFrame rate                     : 23.976 fps\r\nStandard                       : NTSC\r\nColor space                    : YUV\r\nChroma subsampling             : 4:2:0\r\nBit depth                      : 8 bits\r\nScan type                      : Progressive\r\nBits/(Pixel*Frame)             : 0.103\r\nStream size                    : 3.60 GiB (93%)\r\nLanguage                       : English\r\nDefault                        : Yes\r\nForced                         : No\r\nColor primaries                : BT.709\r\nTransfer characteristics       : BT.709\r\nMatrix coefficients            : BT.709\r\nColor range                    : Limited\r\n\r\nAudio\r\nID                             : 2\r\nFormat                         : AC-3\r\nFormat/Info                    : Audio Coding 3\r\nMode extension                 : CM (complete main)\r\nFormat settings, Endianness    : Big\r\nMuxing mode                    : Header stripping\r\nCodec ID                       : A_AC3\r\nDuration                       : 1h 45mn\r\nBit rate mode                  : Constant\r\nBit rate                       : 256 Kbps\r\nChannel(s)                     : 2 channels\r\nChannel positions              : Front: L R\r\nSampling rate                  : 48.0 KHz\r\nBit depth                      : 16 bits\r\nCompression mode               : Lossy\r\nStream size                    : 194 MiB (5%)\r\nLanguage                       : English\r\nDefault                        : Yes\r\nForced                         : No\r\n\r\n \nhttp://extraimago.com/image/abYm \nhttp://extraimago.com/image/abYi \nhttp://extraimago.com/image/abYl \nhttp://extraimago.com/image/abYI \nhttp://extraimago.com/image/abYd \nhttp://extraimago.com/image/abYh \nhttp://extraimago.com/image/abYb","torrent":{"xt":"urn:btih:4e3df4a9f6f00625118d9edcab95a3f92d743210","amp;dn":"The.Jungle.Book.2016.1080p.TC.X264.Masteredition.Hive-CM8","amp;tr":["udp%3A%2F%2Ftracker.leechers-paradise.org%3A6969","udp%3A%2F%2Fzer0day.ch%3A1337","udp%3A%2F%2Fopen.demonii.com%3A1337","udp%3A%2F%2Ftracker.coppersurfer.tk%3A6969","udp%3A%2F%2Fexodus.desync.com%3A6969"],"infoHash":"4e3df4a9f6f00625118d9edcab95a3f92d743210","infoHashBuffer":{"type":"Buffer","data":[78,61,244,169,246,240,6,37,17,141,158,220,171,149,163,249,45,116,50,16]},"announce":[],"urlList":[]}}